<svg width="20" height="20" viewBox="0 0 20 20" fill="none" xmlns="http://www.w3.org/2000/svg">
<g id="clarity:email-solid" clip-path="url(#clip0_8_95)">
<path id="Vector" d="M17.9611 3.33334C17.8854 3.32553 17.8091 3.32553 17.7333 3.33334H2.17778C2.07808 3.33487 1.97904 3.34982 1.88333 3.37778L9.91111 11.3722L17.9611 3.33334Z" fill="#BFBFBF"/>
<path id="Vector_2" d="M18.7833 4.10555L10.6944 12.1611C10.4863 12.3681 10.2047 12.4842 9.91111 12.4842C9.61757 12.4842 9.33596 12.3681 9.12778 12.1611L1.11111 4.16666C1.08647 4.25724 1.0734 4.35058 1.07222 4.44444V15.5556C1.07222 15.8502 1.18929 16.1329 1.39766 16.3412C1.60603 16.5496 1.88865 16.6667 2.18333 16.6667H17.7389C18.0336 16.6667 18.3162 16.5496 18.5246 16.3412C18.7329 16.1329 18.85 15.8502 18.85 15.5556V4.44444C18.8456 4.32869 18.8231 4.21435 18.7833 4.10555ZM2.94444 15.5556H2.17222V14.7611L6.21111 10.7556L6.99444 11.5389L2.94444 15.5556ZM17.7278 15.5556H16.95L12.9 11.5389L13.6833 10.7556L17.7222 14.7611L17.7278 15.5556Z" fill="#BFBFBF"/>
</g>
<defs>
<clipPath id="clip0_8_95">
<rect width="20" height="20" fill="white"/>
</clipPath>
</defs>
</svg>
