<svg width="20" height="20" viewBox="0 0 20 20" fill="none" xmlns="http://www.w3.org/2000/svg">
<g id="fluent-mdl2:world" clip-path="url(#clip0_158_160)">
<path id="Vector" d="M4.84376 8.62305C4.92839 8.62305 5.02279 8.63607 5.12696 8.66212C5.23113 8.68816 5.33529 8.72396 5.43946 8.76954C5.54363 8.81511 5.64779 8.85743 5.75196 8.89649C5.85613 8.93555 5.95053 8.97462 6.03516 9.01368L5.87891 9.03321C5.82683 9.03972 5.77149 9.04297 5.7129 9.04297C5.60222 9.04297 5.50131 9.0267 5.41016 8.99415C5.31902 8.96159 5.23438 8.91928 5.15626 8.86719C5.07813 8.81511 5.00001 8.77605 4.92188 8.75001C4.84376 8.72396 4.77214 8.70443 4.70704 8.69141C4.64193 8.69141 4.58334 8.70443 4.53126 8.73047C4.47917 8.75652 4.42709 8.78581 4.37501 8.81837C4.37501 8.79232 4.35222 8.7793 4.30665 8.7793C4.35222 8.73373 4.43686 8.69792 4.56055 8.67188C4.68425 8.64584 4.77865 8.62956 4.84376 8.62305ZM6.16212 9.06251C6.42904 9.06251 6.67318 9.10808 6.89454 9.19922C6.80339 9.23178 6.71225 9.25782 6.6211 9.27735C6.52995 9.29688 6.43555 9.3099 6.3379 9.31641C6.20769 9.31641 6.0905 9.30339 5.98633 9.27735C6.01889 9.22527 6.05144 9.19271 6.08399 9.17969C6.11654 9.16667 6.14258 9.12761 6.16212 9.06251ZM10 6.26003e-06C10.918 6.26003e-06 11.8001 0.120449 12.6465 0.361334C13.4928 0.60222 14.2871 0.937506 15.0293 1.36719C15.7715 1.79688 16.4486 2.32097 17.0606 2.93946C17.6725 3.55795 18.1934 4.23178 18.6231 4.96094C19.0527 5.69011 19.3913 6.48438 19.6387 7.34376C19.8861 8.20313 20.0065 9.08855 20 10C20 10.918 19.8796 11.8001 19.6387 12.6465C19.3978 13.4928 19.0625 14.2871 18.6328 15.0293C18.2031 15.7715 17.679 16.4486 17.0606 17.0606C16.4421 17.6725 15.7682 18.1934 15.0391 18.6231C14.3099 19.0527 13.5156 19.3913 12.6563 19.6387C11.7969 19.8861 10.9115 20.0065 10 20C9.08204 20 8.19988 19.8796 7.35352 19.6387C6.50717 19.3978 5.7129 19.0625 4.97071 18.6328C4.22852 18.2031 3.55144 17.679 2.93946 17.0606C2.32748 16.4421 1.80665 15.7682 1.37696 15.0391C0.947272 14.3099 0.60873 13.5156 0.361334 12.6563C0.113939 11.7969 -0.00650416 10.9115 6.26003e-06 10C6.26003e-06 9.08204 0.120449 8.19988 0.361334 7.35352C0.60222 6.50717 0.937506 5.7129 1.36719 4.97071C1.79688 4.22852 2.32097 3.55144 2.93946 2.93946C3.55795 2.32748 4.23178 1.80665 4.96094 1.37696C5.69011 0.947272 6.48438 0.60873 7.34376 0.361334C8.20313 0.113939 9.08855 -0.00650416 10 6.26003e-06ZM17.4414 5.41993C17.3503 5.2767 17.2591 5.13998 17.168 5.00977C17.0768 4.87956 16.9824 4.7461 16.8848 4.60938C16.8718 4.66797 16.8555 4.71029 16.8359 4.73633C16.8164 4.76238 16.8034 4.82097 16.7969 4.91212C16.7969 4.97071 16.8197 5.02605 16.8652 5.07813C16.9108 5.13021 16.9694 5.1823 17.041 5.23438C17.1126 5.28646 17.1843 5.32553 17.2559 5.35157C17.3275 5.37761 17.3893 5.4004 17.4414 5.41993ZM16.7676 4.4629C16.7676 4.51498 16.7578 4.55079 16.7383 4.57032H16.7969C16.8229 4.57032 16.8425 4.57357 16.8555 4.58008L16.7676 4.4629ZM10 18.75C10.7422 18.75 11.4681 18.6556 12.1777 18.4668C12.8874 18.278 13.5579 18.0111 14.1895 17.666C14.821 17.321 15.4069 16.8978 15.9473 16.3965C16.4876 15.8952 16.9596 15.3353 17.3633 14.7168C17.2787 14.5215 17.1973 14.3229 17.1191 14.1211C17.041 13.9193 17.002 13.7109 17.002 13.4961C17.002 13.2617 17.0117 13.0729 17.0313 12.9297C17.0508 12.7865 17.0736 12.6595 17.0996 12.5488C17.1257 12.4382 17.1387 12.3438 17.1387 12.2656C17.1387 12.1875 17.1289 12.0866 17.1094 11.9629C17.0898 11.8392 17.0345 11.7057 16.9434 11.5625C16.8522 11.4193 16.7318 11.2175 16.582 10.957C16.5885 10.9115 16.5983 10.8496 16.6113 10.7715C16.6244 10.6934 16.6374 10.612 16.6504 10.5273C16.6634 10.4427 16.6667 10.3646 16.6602 10.293C16.6537 10.2214 16.6374 10.1595 16.6113 10.1074C16.4421 10.0879 16.2663 10.0521 16.084 10C15.9017 9.94792 15.7389 9.8698 15.5957 9.76563L15.6543 9.7168C15.5697 9.73633 15.485 9.76238 15.4004 9.79493C15.3158 9.82748 15.2344 9.86329 15.1563 9.90235C15.0781 9.94141 14.9935 9.96745 14.9023 9.98047C14.8112 9.9935 14.7233 10.0065 14.6387 10.0195L14.4824 10L14.5117 9.93165C14.4206 9.95769 14.3229 9.99024 14.2188 10.0293C14.1146 10.0684 14.0137 10.0879 13.916 10.0879C13.8509 10.0879 13.7565 10.0651 13.6328 10.0195C13.5091 9.97396 13.3854 9.91863 13.2617 9.85352C13.138 9.78842 13.0273 9.7168 12.9297 9.63868C12.832 9.56055 12.7832 9.48568 12.7832 9.41407L12.8027 9.38477C12.7702 9.34571 12.7279 9.3099 12.6758 9.27735C12.6237 9.2448 12.5749 9.21225 12.5293 9.17969C12.4837 9.14714 12.4414 9.11133 12.4023 9.07227C12.3633 9.03321 12.347 8.98764 12.3535 8.93555L12.4609 8.84766L12.2363 8.81837L12.1582 8.5254C12.1712 8.55795 12.2005 8.57097 12.2461 8.56446C12.2917 8.55795 12.3275 8.54493 12.3535 8.5254L12.002 8.33985L12.2461 7.71485C12.155 7.37631 12.1322 7.11589 12.1777 6.9336C12.2233 6.75131 12.3112 6.60157 12.4414 6.48438C12.5716 6.36719 12.7148 6.25001 12.8711 6.13282C13.0273 6.01563 13.1869 5.85613 13.3496 5.6543L13.3203 5.53712L13.9648 4.75587L14.1113 4.73633C14.2936 4.73633 14.4987 4.72982 14.7266 4.7168C14.9544 4.70378 15.1856 4.681 15.4199 4.64844C15.6543 4.61589 15.8854 4.58334 16.1133 4.55079C16.3412 4.51824 16.5495 4.47592 16.7383 4.42383C16.53 4.17644 16.3119 3.94206 16.084 3.72071C15.8561 3.49936 15.612 3.28777 15.3516 3.08594C15.28 3.11199 15.1921 3.14779 15.0879 3.19337C14.9837 3.23894 14.8796 3.29753 14.7754 3.36915C14.6712 3.44076 14.5898 3.51889 14.5313 3.60352C14.4727 3.68816 14.4369 3.77605 14.4238 3.86719L14.4824 4.05274C14.3652 4.24154 14.235 4.35873 14.0918 4.4043C13.9486 4.44988 13.8021 4.47592 13.6523 4.48243C13.5026 4.48894 13.3464 4.48894 13.1836 4.48243C13.0208 4.47592 12.8646 4.50521 12.7148 4.57032L12.5586 4.23829L12.7051 3.67188L12.5391 3.42774L14.2285 2.9004C14.1569 2.71811 14.0397 2.58139 13.877 2.49024C13.7142 2.39909 13.5352 2.35352 13.3398 2.35352V2.25587L13.8867 2.16797C13.2813 1.8685 12.653 1.64063 12.002 1.48438C11.3509 1.32813 10.6836 1.25001 10 1.25001C9.4336 1.25001 8.8737 1.30534 8.32032 1.41602C7.76693 1.5267 7.23308 1.6862 6.71876 1.89454C6.20443 2.10287 5.70639 2.36329 5.22462 2.67579C4.74284 2.98829 4.30339 3.33985 3.90626 3.73047C4.07553 3.73047 4.20574 3.77279 4.29688 3.85743C4.38803 3.94206 4.47266 4.03646 4.55079 4.14063C4.62891 4.2448 4.71029 4.3392 4.79493 4.42383C4.87956 4.50847 4.9935 4.55404 5.13672 4.56055L5.29297 4.44337L5.27344 4.22852L5.59571 3.76954L5.3418 3.04688C5.37436 3.02735 5.42318 2.9948 5.48829 2.94922C5.55339 2.90365 5.60873 2.88087 5.6543 2.88087C5.84962 2.88087 5.99936 2.89063 6.10352 2.91016C6.20769 2.92969 6.29883 2.9655 6.37696 3.01758C6.45508 3.06967 6.52344 3.14454 6.58204 3.24219C6.64063 3.33985 6.73178 3.46355 6.85547 3.61329L7.20704 3.33985C7.27214 3.36589 7.37631 3.40821 7.51954 3.4668C7.66277 3.5254 7.80925 3.59701 7.95899 3.68165C8.10873 3.76628 8.23568 3.85417 8.33985 3.94532C8.44402 4.03646 8.49936 4.1211 8.50587 4.19922C8.50587 4.29688 8.47006 4.37501 8.39844 4.4336C8.32683 4.49219 8.23243 4.54102 8.11524 4.58008C7.99805 4.61915 7.87761 4.64844 7.75391 4.66797C7.63021 4.68751 7.50652 4.71355 7.38282 4.7461C7.25912 4.77865 7.16472 4.8112 7.09962 4.84376C7.03451 4.87631 6.99545 4.93165 6.98243 5.00977L7.54883 5.19532C7.41863 5.306 7.27865 5.40691 7.12891 5.49805C6.97917 5.5892 6.82292 5.67383 6.66016 5.75196L6.69922 5.91797L5.80079 6.26954V6.54297L5.73243 6.57227L5.78126 6.23047L5.74219 6.22071C5.69662 6.22071 5.67058 6.23047 5.66407 6.25001C5.65756 6.26954 5.6543 6.29232 5.6543 6.31837C5.6543 6.34441 5.66081 6.37045 5.67383 6.39649C5.68686 6.42253 5.69011 6.44206 5.6836 6.45508L5.55665 6.38672L5.57618 6.42579C5.57618 6.44532 5.58594 6.47462 5.60547 6.51368C5.62501 6.55274 5.65105 6.58855 5.6836 6.6211C5.71615 6.65365 5.74219 6.6862 5.76172 6.71876C5.78126 6.75131 5.79428 6.76758 5.80079 6.76758C5.80079 6.78712 5.78777 6.80665 5.76172 6.82618C5.73568 6.84571 5.70313 6.85873 5.66407 6.86524C5.62501 6.87175 5.59896 6.88152 5.58594 6.89454C5.57292 6.90756 5.57292 6.91081 5.58594 6.9043C5.67709 6.9043 5.69662 6.91081 5.64454 6.92383C5.59245 6.93686 5.51107 6.96941 5.4004 7.02149C5.28972 7.07357 5.18881 7.14844 5.09766 7.2461C5.00652 7.34376 4.95443 7.48699 4.94141 7.67579C4.94141 7.78646 4.94467 7.89389 4.95118 7.99805C4.95769 8.10222 4.95443 8.20964 4.94141 8.32032C4.85027 8.07292 4.71355 7.88412 4.53126 7.75391C4.34896 7.6237 4.12761 7.5586 3.86719 7.5586L3.44727 7.59766L3.65235 7.73438C3.54167 7.72136 3.42774 7.70834 3.31055 7.69532C3.19337 7.6823 3.07292 7.67904 2.94922 7.68555C2.82553 7.69206 2.71485 7.71811 2.61719 7.76368C2.51954 7.80925 2.42188 7.87761 2.32422 7.96876L2.26563 8.40821C2.26563 8.61654 2.3112 8.78581 2.40235 8.91602C2.4935 9.04623 2.653 9.11459 2.88087 9.1211C3.07618 9.1211 3.26824 9.0918 3.45704 9.03321C3.64584 8.97462 3.83139 8.90626 4.01368 8.82813C3.95508 8.97136 3.88998 9.10808 3.81837 9.23829C3.74675 9.3685 3.69467 9.51172 3.66212 9.66797L3.78907 9.72657C3.94532 9.6224 4.08855 9.60613 4.21876 9.67774C4.34896 9.74936 4.47592 9.85352 4.59962 9.99024C4.72331 10.127 4.85027 10.2669 4.98047 10.4102C5.11068 10.5534 5.25066 10.6576 5.4004 10.7227L5.06837 10.8984L4.28712 10.459C4.29363 10.472 4.30014 10.5013 4.30665 10.5469C4.31316 10.5925 4.3099 10.6022 4.29688 10.5762L3.94532 9.98047C3.73699 9.97396 3.51563 9.94141 3.28126 9.88282C3.04688 9.82422 2.80925 9.7461 2.56837 9.64844C2.32748 9.55079 2.10287 9.44337 1.89454 9.32618C1.6862 9.20899 1.49415 9.08529 1.31837 8.95508L1.25001 10C1.25001 10.7943 1.35743 11.569 1.57227 12.3242C1.78712 13.0794 2.08985 13.7891 2.48047 14.4531C2.8711 15.1172 3.34962 15.7227 3.91602 16.2695C4.48243 16.8164 5.11068 17.2819 5.80079 17.666C5.76824 17.5293 5.76498 17.3926 5.79102 17.2559C5.81706 17.1191 5.84962 16.9824 5.88868 16.8457C5.92774 16.709 5.97006 16.5723 6.01563 16.4356C6.0612 16.2988 6.08399 16.1589 6.08399 16.0156C6.08399 15.8073 6.05144 15.5892 5.98633 15.3613C5.92123 15.1335 5.84311 14.9023 5.75196 14.668C5.66081 14.4336 5.5599 14.2025 5.44922 13.9746C5.33855 13.7468 5.25066 13.5319 5.18555 13.3301C5.12045 13.1283 5.06837 12.9395 5.0293 12.7637C4.99024 12.5879 5.00977 12.4349 5.0879 12.3047L4.94141 12.2363C4.98047 12.1452 5.03256 12.0573 5.09766 11.9727C5.16277 11.888 5.23113 11.8034 5.30274 11.7188C5.37436 11.6341 5.42969 11.543 5.46876 11.4453C5.50782 11.3477 5.53061 11.25 5.53712 11.1523C5.53712 11.0872 5.52409 11.0189 5.49805 10.9473C5.47201 10.8757 5.44922 10.8073 5.42969 10.7422L5.63477 10.791C5.74545 10.5371 5.89519 10.3646 6.08399 10.2734C6.27279 10.1823 6.51042 10.1335 6.79688 10.127C6.82943 10.127 6.89779 10.14 7.00196 10.166C7.10613 10.1921 7.2168 10.2279 7.33399 10.2734C7.45118 10.319 7.56186 10.3548 7.66602 10.3809C7.77019 10.4069 7.84831 10.4329 7.9004 10.459C7.9004 10.5046 7.92644 10.5339 7.97852 10.5469C8.03061 10.5599 8.0599 10.5827 8.06641 10.6152L8.04688 10.6934C8.06641 10.6999 8.11199 10.7227 8.1836 10.7617C8.25521 10.8008 8.33334 10.8496 8.41797 10.9082C8.50261 10.9668 8.57748 11.0189 8.64258 11.0645C8.70769 11.11 8.75326 11.1458 8.7793 11.1719C8.89649 11.1719 9.056 11.2109 9.25782 11.2891C9.45964 11.3672 9.681 11.4648 9.92188 11.582C10.1628 11.6992 10.4004 11.8392 10.6348 12.002C10.8691 12.1647 11.0905 12.3275 11.2988 12.4902C11.5072 12.653 11.6667 12.8158 11.7773 12.9785C11.888 13.1413 11.9531 13.2845 11.9727 13.4082L11.6406 13.7598C11.6667 14.0918 11.6439 14.3457 11.5723 14.5215C11.5007 14.6973 11.39 14.8438 11.2402 14.9609C11.0905 15.0781 10.918 15.1758 10.7227 15.2539C10.5273 15.332 10.3158 15.4427 10.0879 15.5859C10.0879 15.7162 10.0553 15.8561 9.99024 16.0059C9.92514 16.1556 9.84376 16.2988 9.7461 16.4356C9.64844 16.5723 9.53126 16.6862 9.39454 16.7773C9.25782 16.8685 9.1211 16.9141 8.98438 16.9141L8.57422 16.6016C8.58725 16.6146 8.58725 16.6374 8.57422 16.6699C8.5612 16.7025 8.54493 16.709 8.5254 16.6895C8.5905 16.8132 8.60678 16.9564 8.57422 17.1191C8.54167 17.2819 8.48633 17.4479 8.40821 17.6172C8.33008 17.7865 8.24219 17.946 8.14454 18.0957C8.04688 18.2454 7.95899 18.3724 7.88087 18.4766C8.23243 18.5677 8.58399 18.6361 8.93555 18.6816C9.28712 18.7272 9.64193 18.75 10 18.75Z" fill="#BFBFBF"/>
</g>
<defs>
<clipPath id="clip0_158_160">
<rect width="20" height="20" fill="white"/>
</clipPath>
</defs>
</svg>
