<svg width="19" height="15" viewBox="0 0 19 15" fill="none" xmlns="http://www.w3.org/2000/svg">
<g id="Group">
<path id="Vector" d="M13.0568 10H15.0568V11.5H13.0568V10ZM15.0568 7H13.0568V8.33333H15.0568V7Z" fill="#BFBFBF"/>
<path id="Vector_2" fill-rule="evenodd" clip-rule="evenodd" d="M10 3.33333H18.3333V15H0V0H10V3.33333ZM5.16675 1H8.66675V3.33333H5.16675V1ZM8.66675 14V11H5.16675V14H8.66675ZM8.66675 10V7.77471H5.16675V10H8.66675ZM8.66675 6.66667V4.5H5.16675V6.66667H8.66675ZM17.1667 14V4.5H10V7.01743H11.6667V8.15146H10V10.2598H11.6667V11.5H10V14H17.1667ZM1.16675 14L1.16683 11H4.16675L4.16667 14H1.16675ZM1.16675 10H4.16667L4.16675 7.77471H1.16683L1.16675 10ZM4.16667 6.66667L4.16675 4.5H1.16683L1.16675 6.66667H4.16667ZM1.16675 3.33333H4.16667V1H1.16675V3.33333Z" fill="#BFBFBF"/>
</g>
</svg>
