<svg width="20" height="20" viewBox="0 0 20 20" fill="none" xmlns="http://www.w3.org/2000/svg">
<g id="ion:eye">
<path id="Vector" d="M10 12.5C11.3807 12.5 12.5 11.3807 12.5 10C12.5 8.61929 11.3807 7.5 10 7.5C8.61929 7.5 7.5 8.61929 7.5 10C7.5 11.3807 8.61929 12.5 10 12.5Z" fill="#BFBFBF"/>
<path id="Vector_2" d="M19.1734 9.32031C18.1398 7.72188 16.7988 6.36406 15.2957 5.39336C13.6328 4.31836 11.7969 3.75 9.9867 3.75C8.32577 3.75 6.69256 4.22461 5.13241 5.16055C3.54139 6.11484 2.09999 7.50898 0.848032 9.30391C0.706698 9.50676 0.62886 9.74705 0.624409 9.99425C0.619957 10.2414 0.689094 10.4844 0.823032 10.6922C1.85467 12.3066 3.18241 13.6664 4.6621 14.6238C6.32811 15.7031 8.12108 16.25 9.9867 16.25C11.8113 16.25 13.6512 15.6863 15.307 14.6203C16.8094 13.6527 18.1476 12.2898 19.1773 10.6781C19.3067 10.4751 19.375 10.2393 19.3743 9.99865C19.3736 9.75797 19.3039 9.52255 19.1734 9.32031ZM9.99999 13.75C9.25831 13.75 8.53328 13.5301 7.9166 13.118C7.29991 12.706 6.81927 12.1203 6.53544 11.4351C6.25161 10.7498 6.17735 9.99584 6.32204 9.26841C6.46674 8.54098 6.82389 7.8728 7.34834 7.34835C7.87278 6.8239 8.54097 6.46675 9.2684 6.32206C9.99583 6.17736 10.7498 6.25162 11.435 6.53545C12.1203 6.81928 12.7059 7.29993 13.118 7.91661C13.5301 8.5333 13.75 9.25832 13.75 10C13.7488 10.9942 13.3534 11.9474 12.6504 12.6504C11.9474 13.3534 10.9942 13.7489 9.99999 13.75Z" fill="#BFBFBF"/>
</g>
</svg>
