<svg width="20" height="20" viewBox="0 0 20 20" fill="none" xmlns="http://www.w3.org/2000/svg">
<g id="mdi:password">
<path id="Vector" d="M10 14.1667C10.442 14.1667 10.8659 13.9911 11.1785 13.6785C11.4911 13.3659 11.6667 12.942 11.6667 12.5C11.6667 12.058 11.4911 11.634 11.1785 11.3215C10.8659 11.0089 10.442 10.8333 10 10.8333C9.55797 10.8333 9.13405 11.0089 8.82149 11.3215C8.50893 11.634 8.33333 12.058 8.33333 12.5C8.33333 12.942 8.50893 13.3659 8.82149 13.6785C9.13405 13.9911 9.55797 14.1667 10 14.1667ZM15 6.66667C15.442 6.66667 15.8659 6.84226 16.1785 7.15482C16.4911 7.46738 16.6667 7.89131 16.6667 8.33333V16.6667C16.6667 17.1087 16.4911 17.5326 16.1785 17.8452C15.8659 18.1577 15.442 18.3333 15 18.3333H5C4.55797 18.3333 4.13405 18.1577 3.82149 17.8452C3.50893 17.5326 3.33333 17.1087 3.33333 16.6667V8.33333C3.33333 7.89131 3.50893 7.46738 3.82149 7.15482C4.13405 6.84226 4.55797 6.66667 5 6.66667H5.83333V5C5.83333 3.89493 6.27232 2.83512 7.05372 2.05372C7.83512 1.27232 8.89493 0.833333 10 0.833333C10.5472 0.833333 11.089 0.941107 11.5945 1.1505C12.1 1.3599 12.5594 1.66681 12.9463 2.05372C13.3332 2.44063 13.6401 2.89996 13.8495 3.40549C14.0589 3.91101 14.1667 4.45283 14.1667 5V6.66667H15ZM10 2.5C9.33696 2.5 8.70107 2.76339 8.23223 3.23223C7.76339 3.70107 7.5 4.33696 7.5 5V6.66667H12.5V5C12.5 4.33696 12.2366 3.70107 11.7678 3.23223C11.2989 2.76339 10.663 2.5 10 2.5Z" fill="#BFBFBF"/>
</g>
</svg>
