<svg width="20" height="20" viewBox="0 0 20 20" fill="none" xmlns="http://www.w3.org/2000/svg">
<g id="mingcute:user-4-fill" clip-path="url(#clip0_71_127)">
<g id="Group">
<path id="Vector" fill-rule="evenodd" clip-rule="evenodd" d="M9.99996 1.66666C5.39746 1.66666 1.66663 5.3975 1.66663 10C1.66663 14.6025 5.39746 18.3333 9.99996 18.3333C14.6025 18.3333 18.3333 14.6025 18.3333 10C18.3333 5.3975 14.6025 1.66666 9.99996 1.66666ZM7.08329 7.91666C7.08329 7.53364 7.15873 7.15437 7.30531 6.8005C7.45189 6.44664 7.66673 6.12511 7.93756 5.85427C8.2084 5.58343 8.52993 5.36859 8.8838 5.22202C9.23767 5.07544 9.61694 5 9.99996 5C10.383 5 10.7623 5.07544 11.1161 5.22202C11.47 5.36859 11.7915 5.58343 12.0624 5.85427C12.3332 6.12511 12.548 6.44664 12.6946 6.8005C12.8412 7.15437 12.9166 7.53364 12.9166 7.91666C12.9166 8.69021 12.6093 9.43208 12.0624 9.97906C11.5154 10.526 10.7735 10.8333 9.99996 10.8333C9.22641 10.8333 8.48455 10.526 7.93756 9.97906C7.39058 9.43208 7.08329 8.69021 7.08329 7.91666ZM15.215 14.1533C14.5912 14.938 13.7981 15.5716 12.8951 16.0068C11.9921 16.442 11.0024 16.6676 9.99996 16.6667C8.99753 16.6676 8.00784 16.442 7.10482 16.0068C6.20179 15.5716 5.40876 14.938 4.78496 14.1533C6.13579 13.1842 7.97913 12.5 9.99996 12.5C12.0208 12.5 13.8641 13.1842 15.215 14.1533Z" fill="#BFBFBF"/>
</g>
</g>
<defs>
<clipPath id="clip0_71_127">
<rect width="20" height="20" fill="white"/>
</clipPath>
</defs>
</svg>
